ffmpeg started on 2026-01-13 at 09:52:45
Report written to "D:\Convert\FFMetrics\reports\psnr_report-6.txt"
Log level: 32
Command line:
ffmpeg -hide_banner -nostdin -r 24000/1001 -i "F:\\Convert\\files\\[DC] Make Heroine ga Oosugiru - 07_Telegram_HEVC(107).mkv" -r 24000/1001 -i "F:\\Convert\\files\\[DC] Make Heroine ga Oosugiru - 07_Telegram.mp4" -lavfi "[0:v]settb=AVTB,setpts=PTS-STARTPTS,format=pix_fmts=yuv420p10le,fps=24000/1001,scale=1920:1080:flags=lanczos:param0=3:out_range=limited:out_color_matrix=bt709:out_chroma_loc=left,setsar=1/1,setdar=(1920/1080)*(1/1),colorspace=format=yuv420p10:range=tv:primaries=bt709:trc=bt709:space=bt709:fast=0[main];[1:v]settb=AVTB,setpts=PTS-STARTPTS,format=pix_fmts=yuv420p,fps=24000/1001,scale=1920:1080:flags=lanczos:param0=3:out_range=limited:out_color_matrix=bt709:out_chroma_loc=left,setsar=1.000,setdar=1.778,colorspace=format=yuv420p:range=tv:primaries=bt709:trc=bt709:space=bt709:fast=0[ref];[main][ref]psnr=eof_action=endall:stats_file='D\\:/Convert/FFMetrics/logs/psnr_logfile-6.txt'" -f null -
Input #0, matroska,webm, from 'F:\Convert\files\[DC] Make Heroine ga Oosugiru - 07_Telegram_HEVC(107).mkv':
  Metadata:
    COMPATIBLE_BRANDS: isomiso2avc1mp41
    MAJOR_BRAND     : isom
    MINOR_VERSION   : 512
    ENCODER         : Lavf61.7.100
  Duration: 00:24:06.79, start: -0.021000, bitrate: 1010 kb/s
  Stream #0:0: Video: hevc (Main 10), yuv420p10le(tv, bt709, progressive), 1920x1080 [SAR 1:1 DAR 16:9], 23.98 fps, 23.98 tbr, 1k tbn (default)
      Metadata:
        HANDLER_NAME    : VideoHandler
        VENDOR_ID       : [0][0][0][0]
        ENCODER         : Lavc61.19.100 libx265
        BPS             : 812937
        DURATION        : 00:24:06.569708333
        NUMBER_OF_FRAMES: 34683
        NUMBER_OF_BYTES : 146996271
        _STATISTICS_WRITING_APP: mkvpropedit v94.0 ('Initiate') 64-bit
        _STATISTICS_WRITING_DATE_UTC: 2026-01-12 12:51:22
        _STATISTICS_TAGS: BPS DURATION NUMBER_OF_FRAMES NUMBER_OF_BYTES
  Stream #0:1: Audio: aac (LC), 48000 Hz, stereo, fltp (default)
      Metadata:
        HANDLER_NAME    : SoundHandler
        VENDOR_ID       : [0][0][0][0]
        ENCODER         : Lavc61.19.100 aac
        BPS             : 193194
        DURATION        : 00:24:06.784000000
        NUMBER_OF_FRAMES: 67819
        NUMBER_OF_BYTES : 34938755
        _STATISTICS_WRITING_APP: mkvpropedit v94.0 ('Initiate') 64-bit
        _STATISTICS_WRITING_DATE_UTC: 2026-01-12 12:51:22
        _STATISTICS_TAGS: BPS DURATION NUMBER_OF_FRAMES NUMBER_OF_BYTES
Input #1, mov,mp4,m4a,3gp,3g2,mj2, from 'F:\Convert\files\[DC] Make Heroine ga Oosugiru - 07_Telegram.mp4':
  Metadata:
    major_brand     : isom
    minor_version   : 512
    compatible_brands: isomiso2avc1mp41
    encoder         : Lavf60.16.100
  Duration: 00:24:06.74, start: 0.000000, bitrate: 3764 kb/s
  Stream #1:0[0x1](und): Video: h264 (High) (avc1 / 0x31637661), yuv420p(tv, bt709, progressive), 1920x1080 [SAR 1:1 DAR 16:9], 3616 kb/s, 23.98 fps, 23.98 tbr, 24k tbn (default)
      Metadata:
        handler_name    : VideoHandler
        vendor_id       : [0][0][0][0]
        encoder         : Lavc60.31.102 h264_qsv
  Stream #1:1[0x2](und): Audio: aac (HE-AACv2) (mp4a / 0x6134706D), 48000 Hz, stereo, fltp, 144 kb/s (default)
      Metadata:
        handler_name    : SoundHandler
        vendor_id       : [0][0][0][0]
Stream mapping:
  Stream #0:0 (hevc) -> settb:default
  Stream #1:0 (h264) -> settb:default
  psnr:default -> Stream #0:0 (wrapped_avframe)
  Stream #0:1 -> #0:1 (aac (native) -> pcm_s16le (native))
Output #0, null, to 'pipe:':
  Metadata:
    COMPATIBLE_BRANDS: isomiso2avc1mp41
    MAJOR_BRAND     : isom
    MINOR_VERSION   : 512
    encoder         : Lavf61.7.100
  Stream #0:0: Video: wrapped_avframe, yuv420p10le(tv, bt709, progressive), 1920x1080 [SAR 1:1 DAR 16:9], q=2-31, 200 kb/s, 23.98 fps, 23.98 tbn
      Metadata:
        encoder         : Lavc61.19.100 wrapped_avframe
  Stream #0:1: Audio: pcm_s16le, 48000 Hz, stereo, s16, 1536 kb/s (default)
      Metadata:
        HANDLER_NAME    : SoundHandler
        VENDOR_ID       : [0][0][0][0]
        _STATISTICS_TAGS: BPS DURATION NUMBER_OF_FRAMES NUMBER_OF_BYTES
        BPS             : 193194
        DURATION        : 00:24:06.784000000
        NUMBER_OF_FRAMES: 67819
        NUMBER_OF_BYTES : 34938755
        _STATISTICS_WRITING_APP: mkvpropedit v94.0 ('Initiate') 64-bit
        _STATISTICS_WRITING_DATE_UTC: 2026-01-12 12:51:22
        encoder         : Lavc61.19.100 pcm_s16le
frame=  118 fps=0.0 q=-0.0 size=N/A time=00:00:04.92 bitrate=N/A speed=9.59x    frame=  284 fps=277 q=-0.0 size=N/A time=00:00:11.84 bitrate=N/A speed=11.6x    frame=  462 fps=298 q=-0.0 size=N/A time=00:00:19.26 bitrate=N/A speed=12.4x    frame=  628 fps=305 q=-0.0 size=N/A time=00:00:26.19 bitrate=N/A speed=12.7x    frame=  802 fps=312 q=-0.0 size=N/A time=00:00:33.45 bitrate=N/A speed=  13x    frame=  948 fps=307 q=-0.0 size=N/A time=00:00:39.53 bitrate=N/A speed=12.8x    frame= 1104 fps=305 q=-0.0 size=N/A time=00:00:46.04 bitrate=N/A speed=12.7x    frame= 1253 fps=304 q=-0.0 size=N/A time=00:00:52.26 bitrate=N/A speed=12.7x    frame= 1405 fps=303 q=-0.0 size=N/A time=00:00:58.60 bitrate=N/A speed=12.6x    frame= 1539 fps=298 q=-0.0 size=N/A time=00:01:04.18 bitrate=N/A speed=12.4x    frame= 1665 fps=293 q=-0.0 size=N/A time=00:01:09.44 bitrate=N/A speed=12.2x    frame= 1825 fps=295 q=-0.0 size=N/A time=00:01:16.11 bitrate=N/A speed=12.3x    frame= 1996 fps=298 q=-0.0 size=N/A time=00:01:23.24 bitrate=N/A speed=12.4x    frame= 2100 fps=291 q=-0.0 size=N/A time=00:01:27.58 bitrate=N/A speed=12.1x    frame= 2246 fps=291 q=-0.0 size=N/A time=00:01:33.67 bitrate=N/A speed=12.1x    frame= 2390 fps=290 q=-0.0 size=N/A time=00:01:39.68 bitrate=N/A speed=12.1x    frame= 2503 fps=286 q=-0.0 size=N/A time=00:01:44.39 bitrate=N/A speed=11.9x    frame= 2636 fps=284 q=-0.0 size=N/A time=00:01:49.94 bitrate=N/A speed=11.9x    frame= 2798 fps=285 q=-0.0 size=N/A time=00:01:56.69 bitrate=N/A speed=11.9x    frame= 2957 fps=287 q=-0.0 size=N/A time=00:02:03.33 bitrate=N/A speed=  12x    frame= 3140 fps=290 q=-0.0 size=N/A time=00:02:10.96 bitrate=N/A speed=12.1x    frame= 3332 fps=294 q=-0.0 size=N/A time=00:02:18.97 bitrate=N/A speed=12.3x    frame= 3522 fps=297 q=-0.0 size=N/A time=00:02:26.89 bitrate=N/A speed=12.4x    frame= 3726 fps=301 q=-0.0 size=N/A time=00:02:35.40 bitrate=N/A speed=12.6x    frame= 3918 fps=304 q=-0.0 size=N/A time=00:02:43.41 bitrate=N/A speed=12.7x    frame= 4111 fps=307 q=-0.0 size=N/A time=00:02:51.46 bitrate=N/A speed=12.8x    frame= 4298 fps=309 q=-0.0 size=N/A time=00:02:59.26 bitrate=N/A speed=12.9x    frame= 4479 fps=310 q=-0.0 size=N/A time=00:03:06.81 bitrate=N/A speed=12.9x    frame= 4667 fps=312 q=-0.0 size=N/A time=00:03:14.65 bitrate=N/A speed=  13x    frame= 4859 fps=314 q=-0.0 size=N/A time=00:03:22.66 bitrate=N/A speed=13.1x    frame= 5029 fps=315 q=-0.0 size=N/A time=00:03:29.75 bitrate=N/A speed=13.1x    frame= 5209 fps=316 q=-0.0 size=N/A time=00:03:37.25 bitrate=N/A speed=13.2x    frame= 5389 fps=317 q=-0.0 size=N/A time=00:03:44.76 bitrate=N/A speed=13.2x    frame= 5562 fps=317 q=-0.0 size=N/A time=00:03:51.98 bitrate=N/A speed=13.2x    frame= 5738 fps=318 q=-0.0 size=N/A time=00:03:59.32 bitrate=N/A speed=13.3x    frame= 5889 fps=317 q=-0.0 size=N/A time=00:04:05.62 bitrate=N/A speed=13.2x    frame= 6068 fps=318 q=-0.0 size=N/A time=00:04:13.08 bitrate=N/A speed=13.3x    frame= 6215 fps=317 q=-0.0 size=N/A time=00:04:19.21 bitrate=N/A speed=13.2x    frame= 6357 fps=316 q=-0.0 size=N/A time=00:04:25.13 bitrate=N/A speed=13.2x    frame= 6529 fps=317 q=-0.0 size=N/A time=00:04:32.31 bitrate=N/A speed=13.2x    frame= 6698 fps=317 q=-0.0 size=N/A time=00:04:39.36 bitrate=N/A speed=13.2x    frame= 6878 fps=318 q=-0.0 size=N/A time=00:04:46.86 bitrate=N/A speed=13.2x    frame= 7055 fps=318 q=-0.0 size=N/A time=00:04:54.25 bitrate=N/A speed=13.3x    frame= 7241 fps=319 q=-0.0 size=N/A time=00:05:02.01 bitrate=N/A speed=13.3x    frame= 7417 fps=320 q=-0.0 size=N/A time=00:05:09.35 bitrate=N/A speed=13.3x    frame= 7589 fps=320 q=-0.0 size=N/A time=00:05:16.52 bitrate=N/A speed=13.3x    frame= 7778 fps=321 q=-0.0 size=N/A time=00:05:24.40 bitrate=N/A speed=13.4x    frame= 7960 fps=322 q=-0.0 size=N/A time=00:05:31.99 bitrate=N/A speed=13.4x    frame= 8144 fps=322 q=-0.0 size=N/A time=00:05:39.67 bitrate=N/A speed=13.4x    frame= 8326 fps=323 q=-0.0 size=N/A time=00:05:47.26 bitrate=N/A speed=13.5x    frame= 8509 fps=324 q=-0.0 size=N/A time=00:05:54.89 bitrate=N/A speed=13.5x    frame= 8698 fps=324 q=-0.0 size=N/A time=00:06:02.77 bitrate=N/A speed=13.5x    frame= 8877 fps=325 q=-0.0 size=N/A time=00:06:10.24 bitrate=N/A speed=13.5x    frame= 9040 fps=325 q=-0.0 size=N/A time=00:06:17.04 bitrate=N/A speed=13.5x    frame= 9200 fps=324 q=-0.0 size=N/A time=00:06:23.71 bitrate=N/A speed=13.5x    frame= 9362 fps=324 q=-0.0 size=N/A time=00:06:30.47 bitrate=N/A speed=13.5x    frame= 9517 fps=324 q=-0.0 size=N/A time=00:06:36.93 bitrate=N/A speed=13.5x    frame= 9671 fps=323 q=-0.0 size=N/A time=00:06:43.36 bitrate=N/A speed=13.5x    frame= 9842 fps=323 q=-0.0 size=N/A time=00:06:50.49 bitrate=N/A speed=13.5x    frame=10027 fps=324 q=-0.0 size=N/A time=00:06:58.20 bitrate=N/A speed=13.5x    frame=10202 fps=324 q=-0.0 size=N/A time=00:07:05.50 bitrate=N/A speed=13.5x    frame=10390 fps=325 q=-0.0 size=N/A time=00:07:13.34 bitrate=N/A speed=13.6x    frame=10563 fps=325 q=-0.0 size=N/A time=00:07:20.56 bitrate=N/A speed=13.6x    frame=10734 fps=325 q=-0.0 size=N/A time=00:07:27.69 bitrate=N/A speed=13.6x    frame=10914 fps=326 q=-0.0 size=N/A time=00:07:35.20 bitrate=N/A speed=13.6x    frame=11079 fps=326 q=-0.0 size=N/A time=00:07:42.08 bitrate=N/A speed=13.6x    frame=11255 fps=326 q=-0.0 size=N/A time=00:07:49.42 bitrate=N/A speed=13.6x    frame=11436 fps=326 q=-0.0 size=N/A time=00:07:56.97 bitrate=N/A speed=13.6x    frame=11621 fps=327 q=-0.0 size=N/A time=00:08:04.69 bitrate=N/A speed=13.6x    frame=11807 fps=327 q=-0.0 size=N/A time=00:08:12.45 bitrate=N/A speed=13.6x    frame=11977 fps=327 q=-0.0 size=N/A time=00:08:19.54 bitrate=N/A speed=13.6x    frame=12129 fps=327 q=-0.0 size=N/A time=00:08:25.88 bitrate=N/A speed=13.6x    frame=12294 fps=327 q=-0.0 size=N/A time=00:08:32.76 bitrate=N/A speed=13.6x    frame=12464 fps=327 q=-0.0 size=N/A time=00:08:39.85 bitrate=N/A speed=13.6x    frame=12629 fps=327 q=-0.0 size=N/A time=00:08:46.73 bitrate=N/A speed=13.6x    frame=12790 fps=326 q=-0.0 size=N/A time=00:08:53.44 bitrate=N/A speed=13.6x    frame=12949 fps=326 q=-0.0 size=N/A time=00:09:00.08 bitrate=N/A speed=13.6x    frame=13120 fps=326 q=-0.0 size=N/A time=00:09:07.21 bitrate=N/A speed=13.6x    frame=13287 fps=326 q=-0.0 size=N/A time=00:09:14.17 bitrate=N/A speed=13.6x    frame=13443 fps=326 q=-0.0 size=N/A time=00:09:20.68 bitrate=N/A speed=13.6x    frame=13611 fps=326 q=-0.0 size=N/A time=00:09:27.69 bitrate=N/A speed=13.6x    frame=13789 fps=326 q=-0.0 size=N/A time=00:09:35.11 bitrate=N/A speed=13.6x    frame=13971 fps=326 q=-0.0 size=N/A time=00:09:42.70 bitrate=N/A speed=13.6x    frame=14132 fps=326 q=-0.0 size=N/A time=00:09:49.42 bitrate=N/A speed=13.6x    frame=14281 fps=326 q=-0.0 size=N/A time=00:09:55.63 bitrate=N/A speed=13.6x    frame=14475 fps=326 q=-0.0 size=N/A time=00:10:03.72 bitrate=N/A speed=13.6x    frame=14653 fps=327 q=-0.0 size=N/A time=00:10:11.15 bitrate=N/A speed=13.6x    frame=14831 fps=327 q=-0.0 size=N/A time=00:10:18.57 bitrate=N/A speed=13.6x    frame=15017 fps=327 q=-0.0 size=N/A time=00:10:26.33 bitrate=N/A speed=13.6x    frame=15164 fps=327 q=-0.0 size=N/A time=00:10:32.46 bitrate=N/A speed=13.6x    frame=15332 fps=327 q=-0.0 size=N/A time=00:10:39.47 bitrate=N/A speed=13.6x    frame=15523 fps=327 q=-0.0 size=N/A time=00:10:47.43 bitrate=N/A speed=13.6x    frame=15690 fps=327 q=-0.0 size=N/A time=00:10:54.40 bitrate=N/A speed=13.6x    frame=15864 fps=327 q=-0.0 size=N/A time=00:11:01.66 bitrate=N/A speed=13.6x    frame=16045 fps=327 q=-0.0 size=N/A time=00:11:09.21 bitrate=N/A speed=13.7x    frame=16222 fps=328 q=-0.0 size=N/A time=00:11:16.59 bitrate=N/A speed=13.7x    frame=16387 fps=328 q=-0.0 size=N/A time=00:11:23.47 bitrate=N/A speed=13.7x    frame=16553 fps=327 q=-0.0 size=N/A time=00:11:30.39 bitrate=N/A speed=13.7x    frame=16708 fps=327 q=-0.0 size=N/A time=00:11:36.86 bitrate=N/A speed=13.6x    frame=16872 fps=327 q=-0.0 size=N/A time=00:11:43.70 bitrate=N/A speed=13.6x    frame=17050 fps=327 q=-0.0 size=N/A time=00:11:51.12 bitrate=N/A speed=13.7x    frame=17244 fps=328 q=-0.0 size=N/A time=00:11:59.21 bitrate=N/A speed=13.7x    frame=17421 fps=328 q=-0.0 size=N/A time=00:12:06.60 bitrate=N/A speed=13.7x    frame=17606 fps=328 q=-0.0 size=N/A time=00:12:14.31 bitrate=N/A speed=13.7x    frame=17786 fps=328 q=-0.0 size=N/A time=00:12:21.82 bitrate=N/A speed=13.7x    frame=17961 fps=329 q=-0.0 size=N/A time=00:12:29.12 bitrate=N/A speed=13.7x    frame=18126 fps=328 q=-0.0 size=N/A time=00:12:36.00 bitrate=N/A speed=13.7x    frame=18289 fps=328 q=-0.0 size=N/A time=00:12:42.80 bitrate=N/A speed=13.7x    frame=18448 fps=328 q=-0.0 size=N/A time=00:12:49.43 bitrate=N/A speed=13.7x    frame=18612 fps=328 q=-0.0 size=N/A time=00:12:56.27 bitrate=N/A speed=13.7x    frame=18772 fps=328 q=-0.0 size=N/A time=00:13:02.94 bitrate=N/A speed=13.7x    frame=18937 fps=328 q=-0.0 size=N/A time=00:13:09.83 bitrate=N/A speed=13.7x    frame=19126 fps=328 q=-0.0 size=N/A time=00:13:17.71 bitrate=N/A speed=13.7x    frame=19298 fps=328 q=-0.0 size=N/A time=00:13:24.88 bitrate=N/A speed=13.7x    frame=19482 fps=329 q=-0.0 size=N/A time=00:13:32.56 bitrate=N/A speed=13.7x    frame=19660 fps=329 q=-0.0 size=N/A time=00:13:39.98 bitrate=N/A speed=13.7x    frame=19836 fps=329 q=-0.0 size=N/A time=00:13:47.32 bitrate=N/A speed=13.7x    frame=20015 fps=329 q=-0.0 size=N/A time=00:13:54.79 bitrate=N/A speed=13.7x    frame=20198 fps=329 q=-0.0 size=N/A time=00:14:02.42 bitrate=N/A speed=13.7x    frame=20375 fps=329 q=-0.0 size=N/A time=00:14:09.80 bitrate=N/A speed=13.7x    frame=20542 fps=329 q=-0.0 size=N/A time=00:14:16.77 bitrate=N/A speed=13.7x    frame=20708 fps=329 q=-0.0 size=N/A time=00:14:23.69 bitrate=N/A speed=13.7x    frame=20906 fps=329 q=-0.0 size=N/A time=00:14:31.95 bitrate=N/A speed=13.7x    frame=21081 fps=330 q=-0.0 size=N/A time=00:14:39.25 bitrate=N/A speed=13.7x    frame=21250 fps=330 q=-0.0 size=N/A time=00:14:46.30 bitrate=N/A speed=13.7x    frame=21412 fps=329 q=-0.0 size=N/A time=00:14:53.05 bitrate=N/A speed=13.7x    frame=21602 fps=330 q=-0.0 size=N/A time=00:15:00.98 bitrate=N/A speed=13.8x    frame=21778 fps=330 q=-0.0 size=N/A time=00:15:08.32 bitrate=N/A speed=13.8x    frame=21974 fps=330 q=-0.0 size=N/A time=00:15:16.49 bitrate=N/A speed=13.8x    frame=22163 fps=331 q=-0.0 size=N/A time=00:15:24.38 bitrate=N/A speed=13.8x    frame=22356 fps=331 q=-0.0 size=N/A time=00:15:32.43 bitrate=N/A speed=13.8x    frame=22549 fps=331 q=-0.0 size=N/A time=00:15:40.48 bitrate=N/A speed=13.8x    frame=22731 fps=331 q=-0.0 size=N/A time=00:15:48.07 bitrate=N/A speed=13.8x    frame=22910 fps=331 q=-0.0 size=N/A time=00:15:55.53 bitrate=N/A speed=13.8x    frame=23101 fps=332 q=-0.0 size=N/A time=00:16:03.50 bitrate=N/A speed=13.8x    frame=23292 fps=332 q=-0.0 size=N/A time=00:16:11.47 bitrate=N/A speed=13.8x    frame=23469 fps=332 q=-0.0 size=N/A time=00:16:18.85 bitrate=N/A speed=13.9x    frame=23669 fps=332 q=-0.0 size=N/A time=00:16:27.19 bitrate=N/A speed=13.9x    frame=23846 fps=333 q=-0.0 size=N/A time=00:16:34.57 bitrate=N/A speed=13.9x    frame=24037 fps=333 q=-0.0 size=N/A time=00:16:42.54 bitrate=N/A speed=13.9x    frame=24205 fps=333 q=-0.0 size=N/A time=00:16:49.55 bitrate=N/A speed=13.9x    frame=24380 fps=333 q=-0.0 size=N/A time=00:16:56.84 bitrate=N/A speed=13.9x    frame=24558 fps=333 q=-0.0 size=N/A time=00:17:04.27 bitrate=N/A speed=13.9x    frame=24737 fps=333 q=-0.0 size=N/A time=00:17:11.73 bitrate=N/A speed=13.9x    frame=24892 fps=333 q=-0.0 size=N/A time=00:17:18.20 bitrate=N/A speed=13.9x    frame=25091 fps=333 q=-0.0 size=N/A time=00:17:26.50 bitrate=N/A speed=13.9x    frame=25275 fps=333 q=-0.0 size=N/A time=00:17:34.17 bitrate=N/A speed=13.9x    frame=25465 fps=334 q=-0.0 size=N/A time=00:17:42.10 bitrate=N/A speed=13.9x    frame=25652 fps=334 q=-0.0 size=N/A time=00:17:49.90 bitrate=N/A speed=13.9x    frame=25830 fps=334 q=-0.0 size=N/A time=00:17:57.32 bitrate=N/A speed=13.9x    frame=26026 fps=334 q=-0.0 size=N/A time=00:18:05.50 bitrate=N/A speed=13.9x    frame=26215 fps=334 q=-0.0 size=N/A time=00:18:13.38 bitrate=N/A speed=13.9x    frame=26404 fps=335 q=-0.0 size=N/A time=00:18:21.26 bitrate=N/A speed=  14x    frame=26574 fps=335 q=-0.0 size=N/A time=00:18:28.35 bitrate=N/A speed=  14x    frame=26734 fps=334 q=-0.0 size=N/A time=00:18:35.03 bitrate=N/A speed=13.9x    frame=26896 fps=334 q=-0.0 size=N/A time=00:18:41.78 bitrate=N/A speed=13.9x    frame=27041 fps=334 q=-0.0 size=N/A time=00:18:47.83 bitrate=N/A speed=13.9x    frame=27203 fps=334 q=-0.0 size=N/A time=00:18:54.59 bitrate=N/A speed=13.9x    frame=27370 fps=334 q=-0.0 size=N/A time=00:19:01.55 bitrate=N/A speed=13.9x    frame=27541 fps=334 q=-0.0 size=N/A time=00:19:08.68 bitrate=N/A speed=13.9x    frame=27722 fps=334 q=-0.0 size=N/A time=00:19:16.23 bitrate=N/A speed=13.9x    frame=27890 fps=334 q=-0.0 size=N/A time=00:19:23.24 bitrate=N/A speed=13.9x    frame=28061 fps=334 q=-0.0 size=N/A time=00:19:30.37 bitrate=N/A speed=13.9x    frame=28235 fps=334 q=-0.0 size=N/A time=00:19:37.63 bitrate=N/A speed=13.9x    frame=28419 fps=334 q=-0.0 size=N/A time=00:19:45.30 bitrate=N/A speed=13.9x    frame=28588 fps=334 q=-0.0 size=N/A time=00:19:52.35 bitrate=N/A speed=13.9x    frame=28762 fps=334 q=-0.0 size=N/A time=00:19:59.61 bitrate=N/A speed=13.9x    frame=28916 fps=334 q=-0.0 size=N/A time=00:20:06.03 bitrate=N/A speed=13.9x    frame=29083 fps=334 q=-0.0 size=N/A time=00:20:13.00 bitrate=N/A speed=13.9x    frame=29263 fps=334 q=-0.0 size=N/A time=00:20:20.51 bitrate=N/A speed=13.9x    frame=29424 fps=334 q=-0.0 size=N/A time=00:20:27.22 bitrate=N/A speed=13.9x    frame=29576 fps=333 q=-0.0 size=N/A time=00:20:33.56 bitrate=N/A speed=13.9x    frame=29733 fps=333 q=-0.0 size=N/A time=00:20:40.11 bitrate=N/A speed=13.9x    frame=29906 fps=333 q=-0.0 size=N/A time=00:20:47.32 bitrate=N/A speed=13.9x    frame=30050 fps=333 q=-0.0 size=N/A time=00:20:53.33 bitrate=N/A speed=13.9x    frame=30227 fps=333 q=-0.0 size=N/A time=00:21:00.71 bitrate=N/A speed=13.9x    frame=30417 fps=333 q=-0.0 size=N/A time=00:21:08.64 bitrate=N/A speed=13.9x    frame=30613 fps=333 q=-0.0 size=N/A time=00:21:16.81 bitrate=N/A speed=13.9x    frame=30791 fps=333 q=-0.0 size=N/A time=00:21:24.24 bitrate=N/A speed=13.9x    frame=30960 fps=333 q=-0.0 size=N/A time=00:21:31.29 bitrate=N/A speed=13.9x    frame=31130 fps=333 q=-0.0 size=N/A time=00:21:38.38 bitrate=N/A speed=13.9x    frame=31306 fps=333 q=-0.0 size=N/A time=00:21:45.72 bitrate=N/A speed=13.9x    frame=31457 fps=333 q=-0.0 size=N/A time=00:21:52.01 bitrate=N/A speed=13.9x    frame=31625 fps=333 q=-0.0 size=N/A time=00:21:59.02 bitrate=N/A speed=13.9x    frame=31781 fps=333 q=-0.0 size=N/A time=00:22:05.53 bitrate=N/A speed=13.9x    frame=31925 fps=333 q=-0.0 size=N/A time=00:22:11.53 bitrate=N/A speed=13.9x    frame=32078 fps=333 q=-0.0 size=N/A time=00:22:17.91 bitrate=N/A speed=13.9x    frame=32236 fps=332 q=-0.0 size=N/A time=00:22:24.50 bitrate=N/A speed=13.9x    frame=32397 fps=332 q=-0.0 size=N/A time=00:22:31.22 bitrate=N/A speed=13.9x    frame=32577 fps=332 q=-0.0 size=N/A time=00:22:38.73 bitrate=N/A speed=13.9x    frame=32710 fps=332 q=-0.0 size=N/A time=00:22:44.27 bitrate=N/A speed=13.8x    frame=32845 fps=332 q=-0.0 size=N/A time=00:22:49.91 bitrate=N/A speed=13.8x    frame=32996 fps=331 q=-0.0 size=N/A time=00:22:56.20 bitrate=N/A speed=13.8x    frame=33144 fps=331 q=-0.0 size=N/A time=00:23:02.38 bitrate=N/A speed=13.8x    frame=33297 fps=331 q=-0.0 size=N/A time=00:23:08.76 bitrate=N/A speed=13.8x    frame=33441 fps=331 q=-0.0 size=N/A time=00:23:14.76 bitrate=N/A speed=13.8x    frame=33575 fps=330 q=-0.0 size=N/A time=00:23:20.35 bitrate=N/A speed=13.8x    frame=33707 fps=330 q=-0.0 size=N/A time=00:23:25.86 bitrate=N/A speed=13.8x    frame=33816 fps=329 q=-0.0 size=N/A time=00:23:30.40 bitrate=N/A speed=13.7x    frame=33930 fps=329 q=-0.0 size=N/A time=00:23:35.16 bitrate=N/A speed=13.7x    frame=34081 fps=329 q=-0.0 size=N/A time=00:23:41.46 bitrate=N/A speed=13.7x    frame=34224 fps=328 q=-0.0 size=N/A time=00:23:47.42 bitrate=N/A speed=13.7x    frame=34346 fps=328 q=-0.0 size=N/A time=00:23:52.51 bitrate=N/A speed=13.7x    frame=34471 fps=328 q=-0.0 size=N/A time=00:23:57.72 bitrate=N/A speed=13.7x    frame=34642 fps=328 q=-0.0 size=N/A time=00:24:04.86 bitrate=N/A speed=13.7x    [Parsed_psnr_16 @ 0000018348a01980] PSNR y:49.171278 u:50.548514 v:50.616438 average:49.592664 min:37.945898 max:inf
[out#0/null @ 0000018341658a00] video:14903KiB audio:271276KiB subtitle:0KiB other streams:0KiB global headers:0KiB muxing overhead: unknown
frame=34683 fps=328 q=-0.0 Lsize=N/A time=00:24:06.57 bitrate=N/A speed=13.7x    
